0
SECTION
2
HEADER
9
$INSUNITS
70
1
9
$ACADVER
1
AC1014
9
$HANDSEED
5
FFFF
0
ENDSEC
0
SECTION
2
TABLES
0
TABLE
2
VPORT
5
8
100
AcDbSymbolTable
0
ENDTAB
0
TABLE
2
LTYPE
5
5
100
AcDbSymbolTable
0
LTYPE
5
14
100
AcDbSymbolTableRecord
100
AcDbLinetypeTableRecord
2
BYBLOCK
70
0
0
LTYPE
5
15
100
AcDbSymbolTableRecord
100
AcDbLinetypeTableRecord
2
BYLAYER
70
0
0
ENDTAB
0
TABLE
2
LAYER
5
2
100
AcDbSymbolTable
70
2
0
LAYER
5
50
100
AcDbSymbolTableRecord
100
AcDbLayerTableRecord
2
0
70
0
6
CONTINUOUS
0
ENDTAB
0
TABLE
2
STYLE
5
3
100
AcDbSymbolTable
70
1
0
STYLE
5
11
100
AcDbSymbolTableRecord
100
AcDbTextStyleTableRecord
2
STANDARD
70
0
0
ENDTAB
0
TABLE
2
VIEW
5
6
100
AcDbSymbolTable
70
0
0
ENDTAB
0
TABLE
2
UCS
5
7
100
AcDbSymbolTable
70
0
0
ENDTAB
0
TABLE
2
APPID
5
9
100
AcDbSymbolTable
70
2
0
APPID
5
12
100
AcDbSymbolTableRecord
100
AcDbRegAppTableRecord
2
ACAD
70
0
0
ENDTAB
0
TABLE
2
DIMSTYLE
5
A
100
AcDbSymbolTable
70
1
0
ENDTAB
0
TABLE
2
BLOCK_RECORD
5
1
100
AcDbSymbolTable
70
1
0
BLOCK_RECORD
5
1F
100
AcDbSymbolTableRecord
100
AcDbBlockTableRecord
2
*MODEL_SPACE
0
BLOCK_RECORD
5
1B
100
AcDbSymbolTableRecord
100
AcDbBlockTableRecord
2
*PAPER_SPACE
0
ENDTAB
0
ENDSEC
0
SECTION
2
BLOCKS
0
BLOCK
5
20
100
AcDbEntity
100
AcDbBlockBegin
2
*MODEL_SPACE
0
ENDBLK
5
21
100
AcDbEntity
100
AcDbBlockEnd
0
BLOCK
5
1C
100
AcDbEntity
100
AcDbBlockBegin
2
*PAPER_SPACE
0
ENDBLK
5
1D
100
AcDbEntity
100
AcDbBlockEnd
0
ENDSEC
0
SECTION
2
ENTITIES
0
LWPOLYLINE
5
100
100
AcDbEntity
8
0
100
AcDbPolyline
90
11
70
1
43
0.0
10
49.499999999999993
20
-20.499999999999996
42
-0.41421356237309503
10
49.999999999999993
20
-21
42
0.41421356237309503
10
50.999999999999993
20
-22
10
61.999999999999993
20
-22
42
0.41421356237309503
10
62.999999999999986
20
-21
10
62.999999999999986
20
18.999999999999996
42
0.41421356237309587
10
61.999999999999979
20
20.000000000000007
10
-61.999999999999979
20
19.999999999999979
42
0.41421356237309837
10
-63
20
18.999999999999979
10
-62.999999999999979
20
-19.500000000000014
42
0.41421356237309503
10
-61.999999999999979
20
-20.500000000000021
0
CIRCLE
5
101
100
AcDbEntity
8
0
100
AcDbCircle
10
51.499999999999986
20
-20.108677165354333
30
0
40
0.26560000000000056
210
0
220
0
230
1
0
CIRCLE
5
102
100
AcDbEntity
8
0
100
AcDbCircle
10
61.499999999999986
20
-20.108677165354333
30
0
40
0.26560000000000056
210
0
220
0
230
1
0
CIRCLE
5
103
100
AcDbEntity
8
0
100
AcDbCircle
10
61.499999999999986
20
-9.6086771653543366
30
0
40
0.26560000000000056
210
0
220
0
230
1
0
CIRCLE
5
104
100
AcDbEntity
8
0
100
AcDbCircle
10
51.499999999999986
20
-9.6086771653543366
30
0
40
0.26560000000000056
210
0
220
0
230
1
0
CIRCLE
5
105
100
AcDbEntity
8
0
100
AcDbCircle
10
56.499999999999993
20
-20.108677165354333
30
0
40
0.25000000000000305
210
0
220
0
230
1
0
CIRCLE
5
106
100
AcDbEntity
8
0
100
AcDbCircle
10
56.499999999999993
20
-9.6086771653543366
30
0
40
0.25000000000000305
210
0
220
0
230
1
0
CIRCLE
5
107
100
AcDbEntity
8
0
100
AcDbCircle
10
-22.042000000000215
20
14.206906749918506
30
0
40
0.24999999999999867
210
0
220
0
230
1
0
CIRCLE
5
108
100
AcDbEntity
8
0
100
AcDbCircle
10
-22.042000000000215
20
-3.2961823404698118
30
0
40
0.24999999999999867
210
0
220
0
230
1
0
CIRCLE
5
109
100
AcDbEntity
8
0
100
AcDbCircle
10
-2.577775664687338
20
-0.83070866141730382
30
0
40
0.24999999999999975
210
0
220
0
230
1
0
CIRCLE
5
110
100
AcDbEntity
8
0
100
AcDbCircle
10
52.470308590188914
20
-0.83070866141731026
30
0
40
0.25000000000000305
210
0
220
0
230
1
0
CIRCLE
5
111
100
AcDbEntity
8
0
100
AcDbCircle
10
24.946266462750796
20
-0.83070866141730382
30
0
40
0.24999999999999867
210
0
220
0
230
1
0
CIRCLE
5
112
100
AcDbEntity
8
0
100
AcDbCircle
10
-25.042000000000222
20
14.28036220472435
30
0
40
0.21094999999999844
210
0
220
0
230
1
0
CIRCLE
5
113
100
AcDbEntity
8
0
100
AcDbCircle
10
-19.042000000000222
20
14.280362204724348
30
0
40
0.21095000000000064
210
0
220
0
230
1
0
CIRCLE
5
114
100
AcDbEntity
8
0
100
AcDbCircle
10
-19.042000000000222
20
-3.3696377952756582
30
0
40
0.21095000000000064
210
0
220
0
230
1
0
CIRCLE
5
115
100
AcDbEntity
8
0
100
AcDbCircle
10
-25.042000000000218
20
-3.3696377952756511
30
0
40
0.21094999999999844
210
0
220
0
230
1
0
CIRCLE
5
116
100
AcDbEntity
8
0
100
AcDbCircle
10
17.624999999999943
20
-11.125000000000004
30
0
40
0.31249999999999944
210
0
220
0
230
1
0
CIRCLE
5
117
100
AcDbEntity
8
0
100
AcDbCircle
10
17.625000000000011
20
-17.875000000000007
30
0
40
0.31249999999999944
210
0
220
0
230
1
0
CIRCLE
5
118
100
AcDbEntity
8
0
100
AcDbCircle
10
24.375000000000014
20
-17.875000000000007
30
0
40
0.31250000000000161
210
0
220
0
230
1
0
CIRCLE
5
119
100
AcDbEntity
8
0
100
AcDbCircle
10
24.374999999999947
20
-11.125000000000004
30
0
40
0.31250000000000161
210
0
220
0
230
1
0
CIRCLE
5
120
100
AcDbEntity
8
0
100
AcDbCircle
10
-48.653616485630167
20
-19.875000000000018
30
0
40
0.25000000000000305
210
0
220
0
230
1
0
CIRCLE
5
121
100
AcDbEntity
8
0
100
AcDbCircle
10
-48.653616485630167
20
-17.125000000000018
30
0
40
0.25000000000000305
210
0
220
0
230
1
0
CIRCLE
5
122
100
AcDbEntity
8
0
100
AcDbCircle
10
-57.40361648563016
20
-19.875000000000018
30
0
40
0.25000000000000305
210
0
220
0
230
1
0
CIRCLE
5
123
100
AcDbEntity
8
0
100
AcDbCircle
10
-57.40361648563016
20
-17.125000000000018
30
0
40
0.25000000000000305
210
0
220
0
230
1
0
CIRCLE
5
124
100
AcDbEntity
8
0
100
AcDbCircle
10
-18.042000000000204
20
-5.4851732283464472
30
0
40
0.25000000000000083
210
0
220
0
230
1
0
CIRCLE
5
125
100
AcDbEntity
8
0
100
AcDbCircle
10
-18.042000000000268
20
-7.4851732283464498
30
0
40
0.25000000000000083
210
0
220
0
230
1
0
CIRCLE
5
126
100
AcDbEntity
8
0
100
AcDbCircle
10
-14.447000000000147
20
-2.5476732283464654
30
0
40
0.21095000000000064
210
0
220
0
230
1
0
CIRCLE
5
127
100
AcDbEntity
8
0
100
AcDbCircle
10
-9.6970000000000773
20
-2.5476732283464574
30
0
40
0.21095000000000064
210
0
220
0
230
1
0
CIRCLE
5
128
100
AcDbEntity
8
0
100
AcDbCircle
10
-9.6970000000000294
20
-10.422673228346454
30
0
40
0.21094999999999844
210
0
220
0
230
1
0
CIRCLE
5
129
100
AcDbEntity
8
0
100
AcDbCircle
10
-14.44700000000014
20
-10.422673228346461
30
0
40
0.21095000000000064
210
0
220
0
230
1
0
CIRCLE
5
130
100
AcDbEntity
8
0
100
AcDbCircle
10
0.013953470624831375
20
-14.915173228346465
30
0
40
0.10050000000000073
210
0
220
0
230
1
0
CIRCLE
5
131
100
AcDbEntity
8
0
100
AcDbCircle
10
0.013953470624831375
20
-13.165173228346465
30
0
40
0.10050000000000073
210
0
220
0
230
1
0
CIRCLE
5
132
100
AcDbEntity
8
0
100
AcDbCircle
10
41.878579454876785
20
-14.915173228346465
30
0
40
0.10050000000000292
210
0
220
0
230
1
0
CIRCLE
5
133
100
AcDbEntity
8
0
100
AcDbCircle
10
41.878579454876785
20
-13.165173228346465
30
0
40
0.10050000000000292
210
0
220
0
230
1
0
CIRCLE
5
134
100
AcDbEntity
8
0
100
AcDbCircle
10
2.3889534706248159
20
-13.165173228346465
30
0
40
0.10050000000000073
210
0
220
0
230
1
0
CIRCLE
5
135
100
AcDbEntity
8
0
100
AcDbCircle
10
2.3889534706248168
20
-11.415173228346472
30
0
40
0.10050000000000073
210
0
220
0
230
1
0
CIRCLE
5
136
100
AcDbEntity
8
0
100
AcDbCircle
10
-13.09500000000001
20
12.100362204724343
30
0
40
0.10050000000000073
210
0
220
0
230
1
0
CIRCLE
5
137
100
AcDbEntity
8
0
100
AcDbCircle
10
-13.09500000000001
20
13.48036220472434
30
0
40
0.10050000000000073
210
0
220
0
230
1
0
CIRCLE
5
138
100
AcDbEntity
8
0
100
AcDbCircle
10
58.192329454876791
20
-1.0001732283465179
30
0
40
0.21095000000000283
210
0
220
0
230
1
0
CIRCLE
5
139
100
AcDbEntity
8
0
100
AcDbCircle
10
58.192329454876791
20
2.4998267716534821
30
0
40
0.21095000000000283
210
0
220
0
230
1
0
CIRCLE
5
140
100
AcDbEntity
8
0
100
AcDbCircle
10
58.192329454876791
20
8.7498267716534777
30
0
40
0.21095000000000283
210
0
220
0
230
1
0
CIRCLE
5
141
100
AcDbEntity
8
0
100
AcDbCircle
10
58.192329454876791
20
12.249826771653478
30
0
40
0.21095000000000283
210
0
220
0
230
1
0
CIRCLE
5
142
100
AcDbEntity
8
0
100
AcDbCircle
10
-8.2997965293751861
20
-1.0001732283465299
30
0
40
0.21094999999999953
210
0
220
0
230
1
0
CIRCLE
5
143
100
AcDbEntity
8
0
100
AcDbCircle
10
-8.2997965293751861
20
2.4998267716534697
30
0
40
0.21094999999999953
210
0
220
0
230
1
0
CIRCLE
5
144
100
AcDbEntity
8
0
100
AcDbCircle
10
-8.2997965293751861
20
8.7498267716534706
30
0
40
0.21094999999999953
210
0
220
0
230
1
0
CIRCLE
5
145
100
AcDbEntity
8
0
100
AcDbCircle
10
-8.2997965293751861
20
12.249826771653471
30
0
40
0.21095000000000064
210
0
220
0
230
1
0
CIRCLE
5
146
100
AcDbEntity
8
0
100
AcDbCircle
10
-31.499999999999989
20
-13.169637795275644
30
0
40
0.21094999999999844
210
0
220
0
230
1
0
CIRCLE
5
147
100
AcDbEntity
8
0
100
AcDbCircle
10
-32.749999999999993
20
-13.169637795275644
30
0
40
0.21094999999999844
210
0
220
0
230
1
0
CIRCLE
5
148
100
AcDbEntity
8
0
100
AcDbCircle
10
-59.249999999999986
20
-13.16963779527565
30
0
40
0.21095000000000283
210
0
220
0
230
1
0
CIRCLE
5
149
100
AcDbEntity
8
0
100
AcDbCircle
10
-60.499999999999993
20
-13.16963779527565
30
0
40
0.21095000000000283
210
0
220
0
230
1
0
CIRCLE
5
150
100
AcDbEntity
8
0
100
AcDbCircle
10
-59.249999999999986
20
-2.16963779527565
30
0
40
0.21095000000000283
210
0
220
0
230
1
0
CIRCLE
5
151
100
AcDbEntity
8
0
100
AcDbCircle
10
-60.499999999999993
20
-2.1696377952756505
30
0
40
0.21095000000000283
210
0
220
0
230
1
0
CIRCLE
5
152
100
AcDbEntity
8
0
100
AcDbCircle
10
-59.249999999999986
20
13.83036220472435
30
0
40
0.21095000000000283
210
0
220
0
230
1
0
CIRCLE
5
153
100
AcDbEntity
8
0
100
AcDbCircle
10
-60.499999999999993
20
13.83036220472435
30
0
40
0.21095000000000283
210
0
220
0
230
1
0
CIRCLE
5
154
100
AcDbEntity
8
0
100
AcDbCircle
10
-31.499999999999993
20
13.830362204724352
30
0
40
0.21094999999999844
210
0
220
0
230
1
0
CIRCLE
5
155
100
AcDbEntity
8
0
100
AcDbCircle
10
-32.75
20
13.830362204724352
30
0
40
0.21094999999999844
210
0
220
0
230
1
0
CIRCLE
5
156
100
AcDbEntity
8
0
100
AcDbCircle
10
-31.499999999999989
20
-2.1696377952756438
30
0
40
0.21094999999999844
210
0
220
0
230
1
0
CIRCLE
5
157
100
AcDbEntity
8
0
100
AcDbCircle
10
-32.749999999999993
20
-2.1696377952756447
30
0
40
0.21094999999999844
210
0
220
0
230
1
0
CIRCLE
5
158
100
AcDbEntity
8
0
100
AcDbCircle
10
-61.721383514360305
20
16.875000000000107
30
0
40
0.15625000000000303
210
0
220
0
230
1
0
CIRCLE
5
159
100
AcDbEntity
8
0
100
AcDbCircle
10
-61.721383514360305
20
19.250000000000107
30
0
40
0.15625000000000303
210
0
220
0
230
1
0
CIRCLE
5
160
100
AcDbEntity
8
0
100
AcDbCircle
10
-58.471383514360305
20
16.875000000000107
30
0
40
0.15625000000000303
210
0
220
0
230
1
0
CIRCLE
5
161
100
AcDbEntity
8
0
100
AcDbCircle
10
-58.471383514360305
20
19.250000000000107
30
0
40
0.15625000000000303
210
0
220
0
230
1
0
CIRCLE
5
162
100
AcDbEntity
8
0
100
AcDbCircle
10
-1.7213835143603111
20
19.250000000000092
30
0
40
0.1562500000000008
210
0
220
0
230
1
0
CIRCLE
5
163
100
AcDbEntity
8
0
100
AcDbCircle
10
-1.7213835143603107
20
16.875000000000092
30
0
40
0.1562500000000008
210
0
220
0
230
1
0
CIRCLE
5
164
100
AcDbEntity
8
0
100
AcDbCircle
10
1.5286164856396887
20
16.875000000000092
30
0
40
0.1562500000000008
210
0
220
0
230
1
0
CIRCLE
5
165
100
AcDbEntity
8
0
100
AcDbCircle
10
1.5286164856396887
20
19.250000000000092
30
0
40
0.1562500000000008
210
0
220
0
230
1
0
CIRCLE
5
166
100
AcDbEntity
8
0
100
AcDbCircle
10
61.528616485639688
20
19.250000000000078
30
0
40
0.15625000000000303
210
0
220
0
230
1
0
CIRCLE
5
167
100
AcDbEntity
8
0
100
AcDbCircle
10
61.528616485639688
20
16.875000000000075
30
0
40
0.15625000000000303
210
0
220
0
230
1
0
CIRCLE
5
168
100
AcDbEntity
8
0
100
AcDbCircle
10
58.278616485639702
20
16.875000000000075
30
0
40
0.15625000000000303
210
0
220
0
230
1
0
CIRCLE
5
169
100
AcDbEntity
8
0
100
AcDbCircle
10
58.278616485639702
20
19.250000000000078
30
0
40
0.15625000000000303
210
0
220
0
230
1
0
CIRCLE
5
170
100
AcDbEntity
8
0
100
AcDbCircle
10
62.249999999999986
20
4.4553622047243415
30
0
40
0.15625000000000303
210
0
220
0
230
1
0
CIRCLE
5
171
100
AcDbEntity
8
0
100
AcDbCircle
10
62.249999999999986
20
6.4553622047243424
30
0
40
0.15625000000000303
210
0
220
0
230
1
0
CIRCLE
5
172
100
AcDbEntity
8
0
100
AcDbCircle
10
61.249999999999993
20
4.4553622047243415
30
0
40
0.15625000000000303
210
0
220
0
230
1
0
CIRCLE
5
173
100
AcDbEntity
8
0
100
AcDbCircle
10
61.249999999999993
20
6.4553622047243424
30
0
40
0.15625000000000303
210
0
220
0
230
1
0
CIRCLE
5
174
100
AcDbEntity
8
0
100
AcDbCircle
10
54.867526305270474
20
13.249653543307023
30
0
40
0.13385826771653817
210
0
220
0
230
1
0
CIRCLE
5
175
100
AcDbEntity
8
0
100
AcDbCircle
10
54.867526305270474
20
-1.74999999999998
30
0
40
0.13385826771653817
210
0
220
0
230
1
0
CIRCLE
5
176
100
AcDbEntity
8
0
100
AcDbCircle
10
51.717920006057874
20
13.249653543307023
30
0
40
0.13385826771653817
210
0
220
0
230
1
0
CIRCLE
5
177
100
AcDbEntity
8
0
100
AcDbCircle
10
48.568313706845274
20
13.249653543307023
30
0
40
0.13385826771653817
210
0
220
0
230
1
0
CIRCLE
5
178
100
AcDbEntity
8
0
100
AcDbCircle
10
45.418707407632688
20
13.249653543307023
30
0
40
0.13385826771653817
210
0
220
0
230
1
0
CIRCLE
5
179
100
AcDbEntity
8
0
100
AcDbCircle
10
42.269101108420088
20
13.249653543307023
30
0
40
0.13385826771653817
210
0
220
0
230
1
0
CIRCLE
5
180
100
AcDbEntity
8
0
100
AcDbCircle
10
39.119494809207481
20
13.249653543307023
30
0
40
0.13385826771653378
210
0
220
0
230
1
0
CIRCLE
5
181
100
AcDbEntity
8
0
100
AcDbCircle
10
35.969888509994888
20
13.249653543307023
30
0
40
0.13385826771653378
210
0
220
0
230
1
0
CIRCLE
5
182
100
AcDbEntity
8
0
100
AcDbCircle
10
32.820282210782288
20
13.249653543307023
30
0
40
0.13385826771653378
210
0
220
0
230
1
0
CIRCLE
5
183
100
AcDbEntity
8
0
100
AcDbCircle
10
29.670675911569695
20
13.249653543307023
30
0
40
0.13385826771653378
210
0
220
0
230
1
0
CIRCLE
5
184
100
AcDbEntity
8
0
100
AcDbCircle
10
26.521069612357092
20
13.249653543307023
30
0
40
0.13385826771653378
210
0
220
0
230
1
0
CIRCLE
5
185
100
AcDbEntity
8
0
100
AcDbCircle
10
23.371463313144499
20
13.249653543307023
30
0
40
0.13385826771653378
210
0
220
0
230
1
0
CIRCLE
5
186
100
AcDbEntity
8
0
100
AcDbCircle
10
20.221857013931899
20
13.249653543307023
30
0
40
0.13385826771653378
210
0
220
0
230
1
0
CIRCLE
5
187
100
AcDbEntity
8
0
100
AcDbCircle
10
17.072250714719296
20
13.249653543307023
30
0
40
0.133858267716536
210
0
220
0
230
1
0
CIRCLE
5
188
100
AcDbEntity
8
0
100
AcDbCircle
10
13.922644415506701
20
13.249653543307023
30
0
40
0.133858267716536
210
0
220
0
230
1
0
CIRCLE
5
189
100
AcDbEntity
8
0
100
AcDbCircle
10
10.773038116294099
20
13.249653543307023
30
0
40
0.133858267716536
210
0
220
0
230
1
0
CIRCLE
5
190
100
AcDbEntity
8
0
100
AcDbCircle
10
7.6234318170815012
20
13.249653543307023
30
0
40
0.13385826771653378
210
0
220
0
230
1
0
CIRCLE
5
191
100
AcDbEntity
8
0
100
AcDbCircle
10
4.4738255178689048
20
13.249653543307023
30
0
40
0.13385826771653378
210
0
220
0
230
1
0
CIRCLE
5
192
100
AcDbEntity
8
0
100
AcDbCircle
10
1.3242192186563067
20
13.249653543307023
30
0
40
0.133858267716536
210
0
220
0
230
1
0
CIRCLE
5
193
100
AcDbEntity
8
0
100
AcDbCircle
10
-1.8253870805562924
20
13.249653543307023
30
0
40
0.13385826771653378
210
0
220
0
230
1
0
CIRCLE
5
194
100
AcDbEntity
8
0
100
AcDbCircle
10
-4.9749933797688897
20
13.249653543307023
30
0
40
0.13385826771653378
210
0
220
0
230
1
0
CIRCLE
5
195
100
AcDbEntity
8
0
100
AcDbCircle
10
-4.9749933797688897
20
-1.749999999999988
30
0
40
0.13385826771653489
210
0
220
0
230
1
0
CIRCLE
5
196
100
AcDbEntity
8
0
100
AcDbCircle
10
51.717920006057874
20
-1.74999999999998
30
0
40
0.13385826771653817
210
0
220
0
230
1
0
CIRCLE
5
197
100
AcDbEntity
8
0
100
AcDbCircle
10
48.568313706845274
20
-1.7499999999999807
30
0
40
0.13385826771653817
210
0
220
0
230
1
0
CIRCLE
5
198
100
AcDbEntity
8
0
100
AcDbCircle
10
45.418707407632688
20
-1.7499999999999811
30
0
40
0.13385826771653817
210
0
220
0
230
1
0
CIRCLE
5
199
100
AcDbEntity
8
0
100
AcDbCircle
10
42.269101108420088
20
-1.7499999999999813
30
0
40
0.13385826771653817
210
0
220
0
230
1
0
CIRCLE
5
200
100
AcDbEntity
8
0
100
AcDbCircle
10
39.119494809207481
20
-1.7499999999999822
30
0
40
0.13385826771653378
210
0
220
0
230
1
0
CIRCLE
5
201
100
AcDbEntity
8
0
100
AcDbCircle
10
35.969888509994888
20
-1.7499999999999825
30
0
40
0.13385826771653378
210
0
220
0
230
1
0
CIRCLE
5
202
100
AcDbEntity
8
0
100
AcDbCircle
10
32.820282210782288
20
-1.7499999999999829
30
0
40
0.13385826771653378
210
0
220
0
230
1
0
CIRCLE
5
203
100
AcDbEntity
8
0
100
AcDbCircle
10
29.670675911569695
20
-1.7499999999999836
30
0
40
0.13385826771653378
210
0
220
0
230
1
0
CIRCLE
5
204
100
AcDbEntity
8
0
100
AcDbCircle
10
26.521069612357092
20
-1.7499999999999836
30
0
40
0.13385826771653378
210
0
220
0
230
1
0
CIRCLE
5
205
100
AcDbEntity
8
0
100
AcDbCircle
10
23.371463313144499
20
-1.7499999999999842
30
0
40
0.13385826771653378
210
0
220
0
230
1
0
CIRCLE
5
206
100
AcDbEntity
8
0
100
AcDbCircle
10
20.221857013931899
20
-1.7499999999999847
30
0
40
0.13385826771653378
210
0
220
0
230
1
0
CIRCLE
5
207
100
AcDbEntity
8
0
100
AcDbCircle
10
17.072250714719296
20
-1.7499999999999849
30
0
40
0.133858267716536
210
0
220
0
230
1
0
CIRCLE
5
208
100
AcDbEntity
8
0
100
AcDbCircle
10
13.922644415506701
20
-1.7499999999999856
30
0
40
0.133858267716536
210
0
220
0
230
1
0
CIRCLE
5
209
100
AcDbEntity
8
0
100
AcDbCircle
10
10.773038116294099
20
-1.749999999999986
30
0
40
0.133858267716536
210
0
220
0
230
1
0
CIRCLE
5
210
100
AcDbEntity
8
0
100
AcDbCircle
10
7.6234318170815012
20
-1.7499999999999862
30
0
40
0.13385826771653489
210
0
220
0
230
1
0
CIRCLE
5
211
100
AcDbEntity
8
0
100
AcDbCircle
10
4.4738255178689048
20
-1.7499999999999867
30
0
40
0.13385826771653489
210
0
220
0
230
1
0
CIRCLE
5
212
100
AcDbEntity
8
0
100
AcDbCircle
10
1.3242192186563067
20
-1.7499999999999873
30
0
40
0.13385826771653514
210
0
220
0
230
1
0
CIRCLE
5
213
100
AcDbEntity
8
0
100
AcDbCircle
10
-1.8253870805562924
20
-1.7499999999999878
30
0
40
0.13385826771653489
210
0
220
0
230
1
0
LWPOLYLINE
5
214
100
AcDbEntity
8
0
100
AcDbPolyline
90
8
70
1
43
0.0
10
-8.1970000000000223
20
-6.2971732283464519
42
-0.41421356237313761
10
-8.072000000000024
20
-6.4221732283464741
10
-8.0720000000000454
20
-6.5481732283464735
42
-0.41421356237303281
10
-8.1970000000000436
20
-6.6731732283464522
10
-15.947000000000184
20
-6.6731732283464744
42
-0.41421356237314749
10
-16.072000000000184
20
-6.5481732283464513
10
-16.072000000000166
20
-6.4221732283464519
42
-0.41421356237304585
10
-15.947000000000164
20
-6.2971732283464732
0
LWPOLYLINE
5
215
100
AcDbEntity
8
0
100
AcDbPolyline
90
8
70
1
43
0.0
10
52.007381889763764
20
3.2500000000000062
10
52.007381889763764
20
9.2500000000000071
42
0.41421356237309503
10
51.007381889763764
20
10.250000000000005
10
37.007381889763778
20
10.250000000000005
42
0.41421356237309503
10
36.007381889763778
20
9.2500000000000053
10
36.007381889763778
20
3.2500000000000062
42
0.41421356237309176
10
37.007381889763764
20
2.2500000000000062
10
51.007381889763757
20
2.2500000000000049
42
0.41421356237309503
0
LWPOLYLINE
5
216
100
AcDbEntity
8
0
100
AcDbPolyline
90
8
70
1
43
0.0
10
34.007381889763778
20
10.250000000000005
10
18.007381889763778
20
10.250000000000005
42
0.41421356237309503
10
17.007381889763781
20
9.2500000000000053
10
17.007381889763778
20
3.2500000000000062
42
0.41421356237309426
10
18.007381889763774
20
2.2500000000000062
10
34.007381889763778
20
2.2500000000000067
42
0.4142135623730952
10
35.007381889763778
20
3.2500000000000071
10
35.007381889763778
20
9.2500000000000053
42
0.41421356237309503
0
LWPOLYLINE
5
217
100
AcDbEntity
8
0
100
AcDbPolyline
90
8
70
1
43
0.0
10
1.0073818897637807
20
2.2500000000000062
10
15.00738188976378
20
2.2500000000000062
42
0.4142135623730952
10
16.007381889763781
20
3.2500000000000071
10
16.007381889763781
20
9.2500000000000053
42
0.41421356237309503
10
15.00738188976378
20
10.250000000000005
10
1.007381889763783
20
10.250000000000005
42
0.41421356237309509
10
0.0073818897637825389
20
9.2500000000000071
10
0.0073818897637831287
20
3.2500000000000062
42
0.41421356237309453
0
ENDSEC
0
SECTION
2
OBJECTS
0
DICTIONARY
5
C
100
AcDbDictionary
3
ACAD_GROUP
350
D
3
ACAD_MLINESTYLE
350
17
0
DICTIONARY
5
D
100
AcDbDictionary
0
DICTIONARY
5
1A
330
C
100
AcDbDictionary
0
DICTIONARY
5
17
100
AcDbDictionary
0
ENDSEC
0
EOF
